# xmcd
#
# Track frame offsets: 
#        150
#        29589
#        59574
#        88099
#        113119
#        147303
#        170571
#        191891
#        215289
#        235421
#
# Disc length: 3484 seconds
#
# Revision: 1
# Processed by: cddbd v1.5.2PL0 Copyright (c) Steve Scherf et al.
# Submitted via: ExactAudioCopy v1.4
#
DISCID=980d9a0a
DTITLE=CommonSense - Ballads
DYEAR=2002
DGENRE=Jazz
TTITLE0=A Remark You Made
TTITLE1=Lush Life
TTITLE2=Cry Me A River
TTITLE3=Goodbye Pork Pie Hat
TTITLE4='Round Midnight
TTITLE5=Nothing Cpmares 2 U
TTITLE6=Callin You
TTITLE7=Get Here
TTITLE8=Field Of Gold
TTITLE9=A Case of You
EXTD=YEAR: 2002
EXTT0=
EXTT1=
EXTT2=
EXTT3=
EXTT4=
EXTT5=
EXTT6=
EXTT7=
EXTT8=
EXTT9=
PLAYORDER=
